<?xml version="1.0" encoding="UTF-8"?>
<svg id="_レイヤー_1" data-name="レイヤー 1" xmlns="http://www.w3.org/2000/svg" xmlns:xlink="http://www.w3.org/1999/xlink" viewBox="0 0 66.09 52.42">
  <defs>
    <style>
      .cls-1 {
        fill: url(#_名称未設定グラデーション_26);
      }

      .cls-1, .cls-2, .cls-3, .cls-4, .cls-5 {
        stroke-width: 0px;
      }

      .cls-2 {
        fill: url(#_名称未設定グラデーション_25);
      }

      .cls-6 {
        fill: none;
        stroke: url(#_名称未設定グラデーション_300);
        stroke-miterlimit: 10;
        stroke-width: 3px;
      }

      .cls-3 {
        fill: url(#_名称未設定グラデーション_23-2);
      }

      .cls-4 {
        fill: url(#_名称未設定グラデーション_23-3);
      }

      .cls-5 {
        fill: url(#_名称未設定グラデーション_23);
      }
    </style>
    <linearGradient id="_名称未設定グラデーション_26" data-name="名称未設定グラデーション 26" x1="41.41" y1="26.15" x2="46.81" y2="23.38" gradientUnits="userSpaceOnUse">
      <stop offset="0" stop-color="#fff"/>
      <stop offset=".09" stop-color="#fdf2f7"/>
      <stop offset=".27" stop-color="#fad2e4"/>
      <stop offset=".5" stop-color="#f49ec4"/>
      <stop offset=".77" stop-color="#ec5699"/>
      <stop offset="1" stop-color="#e61673"/>
    </linearGradient>
    <linearGradient id="_名称未設定グラデーション_25" data-name="名称未設定グラデーション 25" x1="45.49" y1="21.43" x2="50.72" y2="18.67" gradientUnits="userSpaceOnUse">
      <stop offset="0" stop-color="#fff"/>
      <stop offset=".04" stop-color="#fffdfe"/>
      <stop offset=".13" stop-color="#fdeff5"/>
      <stop offset=".31" stop-color="#f9cadf"/>
      <stop offset=".55" stop-color="#f390bc"/>
      <stop offset=".84" stop-color="#ea3f8c"/>
      <stop offset=".99" stop-color="#e61673"/>
    </linearGradient>
    <linearGradient id="_名称未設定グラデーション_23" data-name="名称未設定グラデーション 23" x1="50" y1="19.25" x2="55.23" y2="16.48" gradientUnits="userSpaceOnUse">
      <stop offset="0" stop-color="#fff"/>
      <stop offset=".09" stop-color="#fdf2f7"/>
      <stop offset=".27" stop-color="#fad2e4"/>
      <stop offset=".5" stop-color="#f49ec4"/>
      <stop offset=".77" stop-color="#ec5699"/>
      <stop offset="1" stop-color="#e61673"/>
    </linearGradient>
    <linearGradient id="_名称未設定グラデーション_23-2" data-name="名称未設定グラデーション 23" x1="52.93" y1="15.79" x2="58.7" y2="12.74" xlink:href="#_名称未設定グラデーション_23"/>
    <linearGradient id="_名称未設定グラデーション_23-3" data-name="名称未設定グラデーション 23" x1="58.4" y1="14.14" x2="61.57" y2="12.47" xlink:href="#_名称未設定グラデーション_23"/>
    <linearGradient id="_名称未設定グラデーション_300" data-name="名称未設定グラデーション 300" x1="92.15" y1="850.25" x2="143.22" y2="850.25" gradientTransform="translate(-813.54 167.72) rotate(-91.6)" gradientUnits="userSpaceOnUse">
      <stop offset="0" stop-color="#231815"/>
      <stop offset=".04" stop-color="#4e4643"/>
      <stop offset=".12" stop-color="#999493"/>
      <stop offset=".18" stop-color="#d0cecd"/>
      <stop offset=".23" stop-color="#f2f1f1"/>
      <stop offset=".26" stop-color="#fff"/>
      <stop offset=".43" stop-color="#fbe5ee"/>
      <stop offset=".65" stop-color="#f7cadd"/>
      <stop offset=".85" stop-color="#f4b9d3"/>
      <stop offset="1" stop-color="#f4b4d0"/>
    </linearGradient>
  </defs>
  <g>
    <path class="cls-1" d="M46.05,20.57c.03.07-.07.52-.31,1.34-.27.9-.74,1.83-1.42,2.78l-.04.79c-.09,1.55-.36,2.8-.81,3.75-.47.98-.98,1.61-1.54,1.88-.19.09-.38.11-.57.05-.19-.06-.32-.18-.41-.36-.46-.94.16-2.44,1.84-4.5.13-.18.34-.43.62-.76l.07-.11.17-2.8c-.16.91-.3,1.52-.42,1.83-.12.31-.29.53-.52.64-.19.09-.4.09-.62,0-.22-.09-.39-.25-.49-.47-.13-.27-.16-.76-.11-1.49l.2-2.35c.12-.03.25-.08.39-.15.12-.06.28-.16.48-.29l-.3,2.92c-.08.83-.08,1.34.02,1.54.1.21.25.27.44.18.51-.25.85-1.52,1.03-3.82l.11-1.42c.12-.03.25-.09.41-.16.13-.06.28-.15.45-.28-.13,1.21-.27,2.94-.39,5.21.43-.57.76-1.13.99-1.66.23-.53.43-1.23.62-2.1.03-.12.05-.18.07-.19.03-.01.05,0,.06.02ZM43.46,25.59c-.05.08-.26.34-.6.79-1.62,2.09-2.22,3.56-1.82,4.4.17.35.45.43.85.24.5-.24.86-.75,1.09-1.53.23-.78.38-2.02.46-3.72l.03-.19Z"/>
    <path class="cls-2" d="M50.57,18.38c.05.11-.07.73-.36,1.86-.24.94-.53,1.49-.85,1.65-.21.1-.42.1-.64,0-.22-.1-.39-.26-.51-.5-.09-.18-.12-.48-.1-.9l-.05.26c-.16.76-.3,1.29-.41,1.57-.12.32-.28.52-.47.62-.21.1-.42.1-.64,0s-.38-.26-.5-.49c-.13-.27-.18-.64-.14-1.09l.24-2.77c.17-.04.31-.09.4-.13.09-.04.24-.14.45-.28l-.34,3.57c-.03.36,0,.65.11.87.1.21.24.27.42.19.47-.23.81-1.48,1-3.75l.12-1.5c.16-.04.29-.08.39-.13.12-.06.28-.15.48-.29l-.24,2.38c-.11,1.13-.11,1.82.01,2.07.1.2.24.26.44.16.38-.18.7-1.07.97-2.66l.07-.41.05-.22c0-.06.01-.09.04-.1.03-.01.05,0,.06.02Z"/>
    <path class="cls-5" d="M55.07,16.19c.05.11-.07.73-.36,1.86-.24.94-.53,1.49-.85,1.65-.21.1-.42.1-.65,0-.22-.1-.39-.26-.5-.5-.09-.18-.12-.48-.1-.9l-.05.26c-.16.76-.3,1.29-.41,1.57-.12.32-.28.52-.47.62-.21.1-.42.1-.64,0-.22-.09-.38-.26-.5-.49-.13-.27-.18-.64-.14-1.09l.24-2.77c.18-.04.31-.09.4-.13.09-.04.24-.14.46-.28l-.34,3.57c-.03.36,0,.65.11.87.1.21.24.27.42.19.47-.23.8-1.48.99-3.75l.12-1.5c.16-.04.29-.08.39-.13.12-.06.28-.15.47-.29l-.24,2.38c-.11,1.13-.11,1.82.01,2.07.1.2.24.26.43.16.38-.18.7-1.07.97-2.66l.07-.41.05-.22c0-.06.01-.09.04-.1.03-.01.05,0,.06.02Z"/>
    <path class="cls-3" d="M56.39,9.41c0,.08-.02.21-.04.37-.03.26-.07.64-.12,1.14-.02.26-.05.65-.1,1.17l-.26,2.54c-.09.85-.14,1.6-.17,2.27-.03.74-.06,1.32-.1,1.74l-.02.19c-.14.03-.27.08-.39.14-.1.05-.25.14-.44.26.02-.24.04-.5.06-.79l.13-1.82c.02-.27.05-.68.09-1.22l.49-5.57c.21-.06.36-.11.46-.15.09-.05.23-.14.42-.27ZM59.41,14.09s0,.07-.02.15l-.1.56c-.29,1.66-.67,2.59-1.12,2.81-.2.1-.41.12-.63.06s-.37-.18-.46-.35c-.07-.15-.11-.55-.1-1.2v-.03c0-.22-.02-.37-.06-.45-.05-.1-.17-.16-.37-.18-.14.16-.27.27-.39.33-.16.08-.27.07-.31-.02-.04-.08.02-.16.17-.23.15-.07.3-.12.45-.13.19-.22.39-.75.62-1.59.12-.45.33-.75.62-.89.36-.17.62-.09.78.25.11.23.13.49.05.8-.07.31-.2.51-.38.59-.2.1-.35.06-.44-.13-.08-.17-.02-.42.2-.76.09-.14.1-.28.03-.43-.05-.11-.15-.13-.3-.06-.2.1-.37.4-.5.9-.17.63-.36,1.06-.55,1.29.6-.01.96.13,1.11.43.08.16.12.54.12,1.12,0,.25.01.4.05.48.06.12.17.15.32.07.44-.21.8-1.31,1.08-3.28,0-.06.03-.1.06-.11.03-.01.05,0,.07.02Z"/>
    <path class="cls-4" d="M61.81,12.93s0,.07-.02.15l-.1.56c-.29,1.65-.67,2.59-1.13,2.82-.22.11-.44.12-.67.03-.22-.09-.39-.25-.51-.48-.13-.27-.17-.76-.11-1.47l.19-2.39c.16-.04.29-.08.37-.12.13-.06.3-.16.51-.31l-.33,3.4c-.05.49-.02.84.08,1.05.1.21.26.26.48.16.42-.2.79-1.3,1.12-3.3,0-.06.01-.09.04-.1.03-.01.05,0,.06.02ZM60.3,10.07c.08.17.09.35.02.56-.07.21-.18.35-.35.43-.21.1-.37.05-.47-.16-.07-.15-.07-.34,0-.55.08-.21.19-.36.35-.44.2-.1.35-.05.45.16Z"/>
  </g>
  <path class="cls-6" d="M2.1,33.33c3.28-2.37,12.79-9.25,15.25-11.02.34-.25.77-.33,1.18-.24l22.71,5.18c.33.08.68.03.98-.12l21.57-10.76c.62-.31.94-1,.76-1.67l-3.1-12.11c-.27-1.04-1.53-1.45-2.36-.76l-27.58,23.07c-.1.08-.19.18-.26.29l-17.47,25.09c-.59.85-1.87.83-2.43-.04L1.73,35.3c-.42-.65-.26-1.52.37-1.97Z"/>
</svg>